<svg preserveAspectRatio="xMidYMax meet" viewBox="0 0 290 222" version="1.1" xmlns="http://www.w3.org/2000/svg" xmlns:xlink="http://www.w3.org/1999/xlink">
    <title>Some title, maybe pass is through</title>
    <g id="Web-Extension-–-MVP" stroke="none" stroke-width="1" fill="none" fill-rule="evenodd">
        <g id="Team-Activity-|-Empty-state-|-480w" transform="translate(-94.000000, -80.000000)">
            <g id="Group" transform="translate(16.000000, 80.000000)">
                <g id="Group-2" transform="translate(78.000000, 0.000000)">
                    <g id="Group-3">
                        <g id="clouds" transform="translate(68.000000, 0.272069)" fill="#1E78F0" fill-rule="nonzero" opacity="0.25">
                            <path d="M58.4474674,42.5024602 C56.8052819,40.5498428 54.430352,39.3611213 51.883068,39.2167873 C52.1572455,37.8499519 52.0556164,36.4343471 51.5890014,35.1206946 C51.0379161,33.5971056 50.0515195,32.3166425 48.6807525,31.7701881 C48.2014238,31.2032364 47.484009,30.8938138 46.7426918,30.9342981 C45.1218524,30.9551375 43.3921852,32.0781476 42.0329957,32.853835 C41.7381573,33.0220936 41.4479498,33.1965268 41.1623734,33.3771346 C41.5560058,30.5684515 41.6115774,27.7065123 40.6413893,25.0413893 C39.4836469,21.8506512 36.881042,18.8729378 33.4240232,18.1852388 C29.5872648,17.4211288 25.9403763,19.7250362 23.0599132,22.0057887 C18.5749673,25.5829632 15.3250671,30.4768448 13.7678726,35.9982634 C11.8969609,34.1690304 9.21099855,33.1479016 6.5366136,33.5392185 C1.77829233,34.233864 -0.641389291,39.3557164 0.395947902,43.752822 C1.80839363,49.7730825 8.98408104,50.4121563 14.0295224,51.3615051 C20.5872225,52.5966627 27.2234742,53.3703892 33.8894356,53.6769899 C39.3419622,53.9267427 44.8044959,53.8532904 50.2483357,53.4570188 C53.1751085,54.0497829 56.2153401,55.2052098 58.9198263,53.4824891 C59.3697355,53.2130726 59.6659051,52.7469275 59.7186686,52.2251809 C61.0801737,49.0274964 60.7073806,45.2555716 58.4474674,42.5024602 Z" id="Path"></path>
                            <path d="M155.832127,19.4402315 C155.830387,17.5463999 155.572576,15.6614995 155.065702,13.8367583 C154.591027,12.1557164 153.9589,9.77539797 152.157453,9.06222865 C150.274964,8.30969609 148.126194,9.69898698 146.551664,10.6483357 C145.710817,11.159628 144.901979,11.7217935 144.129667,12.3316932 C143.692041,9.923589 143.04602,7.55021708 141.765557,5.44544139 C140.160926,2.81041968 137.52822,0.617655572 134.411577,0.15918958 C131.255572,-0.303907381 128.159768,1.12243126 126.038784,3.43560058 C123.760347,5.92474674 122.646599,9.18958032 121.836179,12.4034732 C120.979013,15.8323204 120.386818,19.3220121 120.064834,22.8416787 C113.91259,21.2578871 107.021708,24.5991317 104.685384,30.6934877 C104.421418,31.3881331 104.856729,32.3143271 105.484226,32.6547033 C109.001447,34.5441389 113.079016,34.2639653 116.94356,34.233864 C121.244187,34.2014472 125.543271,34.1242644 129.84081,34.0023155 C138.590256,33.7568741 147.332754,33.3315967 156.068307,32.7264834 C156.385127,32.7089032 156.691409,32.6065427 156.955137,32.4301013 C157.529696,32.4281137 158.065122,32.1386706 158.381476,31.6590449 C161.062808,27.7968162 159.747612,21.9316932 155.832127,19.4402315 Z" id="Path"></path>
                            <path d="M99.1530186,117.672359 C98.4502095,117.346573 97.6188986,117.492514 97.0690822,118.038205 C94.2185046,120.583624 92.0474919,123.799556 90.7524397,127.39508 C89.9126905,125.175301 88.9780065,122.991027 87.9483876,120.842258 C86.4155366,117.646889 84.5955656,114.483936 81.9721213,112.043415 C79.5200229,109.769609 75.3567812,107.442547 71.9946973,109.003184 C70.2418753,109.815919 69.3388362,111.5178 68.7368102,113.268307 C68.0843125,115.272038 67.5637578,117.316356 67.1784889,119.388133 C66.542847,122.543034 66.1281397,125.738446 65.937389,128.951085 C65.1192511,128.068114 64.27024,127.219103 63.3903557,126.404052 C61.4360866,124.609551 58.926101,122.724747 56.6152472,125.211577 C53.4106162,128.657019 53.3411517,134.269754 55.3764628,138.294067 C55.3663581,138.308982 55.3570821,138.324442 55.348677,138.340376 C54.9434672,139.092909 55.205117,140.350217 56.0780547,140.685962 C74.8057696,147.905353 95.4105454,148.651165 114.611195,142.804631 C115.484133,142.53835 116.067635,141.514906 115.752729,140.630391 C112.617563,131.780608 108.52147,121.488278 99.1530186,117.672359 Z" id="Path"></path>
                        </g>
                        <g id="baloon" transform="translate(0.000000, 18.000000)" fill-rule="nonzero">
                            <g id="body" transform="translate(0.734560, 28.015769)" fill="#1E78F0">
                                <path d="M122.226873,53.9842313 C122.547465,53.643448 122.819421,53.2599909 123.03502,52.8447438 C123.818922,51.3604468 124.023653,49.4316689 122.614783,48.2490802 C124.769842,45.0003285 121.771616,42.0074901 118.918857,40.7225361 C115.670105,39.2624836 111.995729,39.2732589 108.598817,40.1837714 C101.864258,41.9913272 96.7594612,55.2233903 94.3808147,61.6966491 C93.7504599,52.106636 90.9515769,41.7973719 84.2116294,34.6021682 C77.3262155,27.2480289 66.2465177,26.1435611 56.7346255,25.3273325 C46.3876478,24.4356767 38.5055191,24.8990145 28.4494744,27.6628778 C19.8777267,30.0199737 10.5274639,34.66682 6.80998686,43.187385 C2.71806833,52.580749 1.76714849,63.45841 0.90781866,73.5602497 C-0.0592641261,84.9389619 -0.0431011827,96.3931012 0.250525624,107.804139 C0.476806833,116.550986 0.891655716,129.33318 10.2688568,131.186531 C11.4918528,132.549606 12.7525624,132.697766 13.8193167,132.948292 C14.4981603,133.107227 16.4538765,133.325427 17.6499343,132.619645 C18.067477,133.0318 17.7334428,139.782523 17.7415243,141.347635 C17.7738502,147.306373 17.7900131,153.262418 17.8627464,159.218463 C17.8923784,161.818003 18.0243758,165.842576 17.7603811,167.935677 C16.2895532,169.094021 12.6421156,170.828844 12.6421156,173.053942 C12.6421156,175.279041 14.0402102,175.906702 17.9273982,175.906702 C21.8145861,175.906702 30.367477,175.753154 34.9469777,175.753154 C39.5264783,175.753154 39.2570959,175.825887 40.2618922,174.751051 C41.2666886,173.676216 40.9919185,171.372996 41.0053876,169.037451 C41.0215506,166.144284 40.954205,158.80092 40.8518397,155.902365 C40.6390276,149.994809 40.4666229,144.095335 40.3938896,138.179698 C40.2565046,127.19159 40.0787122,118.283114 40.1245072,107.295007 C40.143364,101.637976 40.1945466,94.0952694 40.280749,88.4382392 C40.3615637,83.346912 40.571682,70.8664258 40.571682,70.8664258 C40.571682,70.8664258 44.4480946,70.3088042 45.2562418,70.2441524 C47.9339028,69.9963206 50.6438896,69.9532194 53.3215506,69.8562418 C54.4319551,69.8534389 55.5408215,69.9390135 56.6376478,70.1121551 C56.6376478,70.1121551 56.8289093,123.484888 56.8127464,145.897503 C56.8127464,151.683837 56.9743758,162.558804 56.9743758,166.429829 C56.9743758,170.300854 56.9878449,173.107819 57.5131406,174.449343 C58.0384363,175.790867 59.0378449,175.904008 61.1228647,175.904008 L76.860184,175.904008 C82.9832457,175.904008 85.0116951,175.677727 85.181406,173.546912 C85.351117,171.416097 81.1945466,169.597766 80.6315375,168.514849 C80.0685283,167.431932 80.3621551,160.834757 80.195138,157.847306 C79.8799606,152.252234 80.1062418,143.952562 80.1116294,138.349409 C80.1224047,126.807271 80.1610162,115.266032 80.2274639,103.72569 C80.2678712,98.3137976 79.995795,92.9099869 80.2274639,87.5007884 C84.9470434,94.9141919 93.4864652,97.1770039 101.452102,92.4601183 C108.493758,88.2900788 112.857753,73.7434297 113.269908,63.0974376 C116.324704,62.5748357 120.780289,60.6002628 122.065243,57.5319974 C122.447766,56.6187911 122.294218,56.0396189 122.353482,55.1452694 C121.794963,54.6998905 121.75276,54.3128778 122.226873,53.9842313 Z" id="Path"></path>
                                <path d="M41.045795,13.5822602 C41.5845598,16.1386991 42.7402102,18.0189882 44.8413929,19.0103154 C46.565337,19.8414245 48.6168618,19.5807626 50.0781866,18.3449409 C51.3146518,17.2674113 52.2709593,15.9204993 52.6157687,14.2368594 C53.0535769,11.8986741 53.1839843,9.51330456 53.0036794,7.1413272 C52.7666229,4.80039422 51.4897503,2.29244415 50.3987516,1.23107753 C49.307753,0.169710907 47.6295007,-0.150854139 45.7815375,0.331340342 C43.9335742,0.813534823 43.0661629,1.53817346 42.2445466,3.06018397 C41.795665,3.92831639 41.4554754,4.84845688 41.2316689,5.79980289 C39.1277924,6.25505913 36.7087385,7.03088042 36.6144547,9.439159 C36.5201708,11.8474376 38.8314717,13.2536137 41.045795,13.5822602 Z" id="Path"></path>
                            </g>
                            <path d="M122.430749,5.9695138 C119.265506,0.498357424 112.328909,-1.59743758 106.389028,1.39001314 C100.8182,4.19697766 99.452431,10.9423127 100.117806,16.7448095 C100.74816,22.2267411 102.746978,27.1672142 107.746715,29.8044678 C108.449803,30.4536794 109.75092,30.6611038 110.548292,30.9870565 C110.551724,31.3724502 110.591408,31.7566662 110.66682,32.1346255 C110.243189,33.1414485 109.925405,34.1895951 109.718594,35.2621551 C109.508476,36.4528252 110.494415,37.8886334 111.85749,37.4172142 C112.444744,37.2070959 112.93502,37.3202365 113.522273,37.4872536 C115.060447,37.9209593 116.146058,36.2480946 115.488765,34.9308147 C115.121004,34.2102105 114.792769,33.4701084 114.505519,32.7137976 C114.446255,32.5602497 114.395072,32.4040079 114.341196,32.2477661 C114.393885,32.0011021 114.377099,31.744656 114.292707,31.5069645 C117.76774,29.694021 119.850066,28.3013141 121.533706,25.5132063 C124.760907,20.1605782 125.53134,11.3275296 122.430749,5.9695138 Z" id="object" fill="#F0B441"></path>
                            <g id="object-lines" transform="translate(110.373193, 30.440210)" fill="#DC8C2D">
                                <path d="M2.31984877,6.53521544 C2.76613982,6.52958912 3.13254565,6.88676404 3.13823911,7.33305508 L3.14596933,7.98451953 C3.21039876,13.8735601 3.09729072,17.5475192 2.74991496,23.9260387 L2.66553725,25.4718985 C2.31826309,31.9415677 2.22552595,35.7886084 2.35424167,42.247301 C2.36313479,42.6935397 2.0085961,43.062497 1.56235735,43.0715539 C1.1161186,43.0802833 0.747161312,42.7257446 0.73826819,42.2795058 L0.72478774,41.5674171 C0.61594793,35.4848045 0.715237072,31.6515951 1.05145942,25.387266 L1.19044932,22.8238495 C1.50498843,16.867643 1.59743118,13.2604935 1.52207627,7.35367291 C1.51638281,6.90738186 1.87355773,6.54097603 2.31984877,6.53521544 Z" id="Path"></path>
                                <path d="M0.707820301,0.383554822 C1.54277855,0.157981423 2.81573592,0.252978241 3.84842449,0.596167795 C4.27197559,0.736924958 4.50122537,1.19438719 4.36046821,1.61793829 C4.21971105,2.04148939 3.76224881,2.27073917 3.33869772,2.12998201 C2.61705131,1.89015994 1.70598111,1.81473091 1.19156175,1.92867757 L1.12936761,1.94390904 C0.69848769,2.06031612 0.254823921,1.80538551 0.138416846,1.37450559 C0.0220097704,0.943625666 0.276940381,0.499961897 0.707820301,0.383554822 Z" id="Path"></path>
                            </g>
                            <g id="body-lines" transform="translate(7.000000, 32.325887)" fill="#3741F0">
                                <path d="M101.396167,38.2685784 C102.820921,37.978203 104.27541,38.6867073 105.625399,40.0502359 C106.670562,41.1058808 107.601283,42.5313051 108.044128,43.6807504 C108.887229,45.869091 108.808793,48.6772847 107.703289,49.8350947 C106.641209,50.9414288 105.356788,50.7233832 104.287201,49.6581133 L104.206121,49.5752737 L104.155749,49.5211038 L104.142636,49.5752296 C103.663331,51.4797908 102.441178,53.1255781 100.685482,54.0621402 L100.587396,54.1134389 C100.190217,54.3170499 99.7031813,54.1601325 99.4995703,53.7629542 C99.2959593,53.3657758 99.4528767,52.8787397 99.850055,52.6751287 C101.863553,51.6429219 102.999557,49.3802972 102.705854,47.006801 C102.587566,46.0508755 103.928257,45.73733 104.260393,46.6120788 L104.276929,46.6592184 C104.448608,47.190867 104.939795,48.0268967 105.42778,48.5129117 C105.928064,49.0111763 106.20808,49.0587125 106.535804,48.7173373 C107.117486,48.1081318 107.178341,45.929344 106.535898,44.2618251 C105.662734,41.9954506 103.310158,39.6017556 101.777484,39.841779 L101.718944,39.8523152 C101.281608,39.9414477 100.85482,39.6591723 100.765687,39.2218354 C100.676555,38.7844986 100.95883,38.3577109 101.396167,38.2685784 Z" id="Path"></path>
                                <path d="M72.1502842,49.7999233 C72.4795202,49.4985734 72.990711,49.5211795 73.2920609,49.8504156 C74.2716056,50.9206047 74.7971884,54.1447986 75.0900235,59.2354007 L75.110079,59.5935836 C75.309685,63.2564834 75.3587732,67.6792604 75.2898362,70.7515361 L75.2426327,72.7889789 C75.1606573,76.5345551 75.1008116,80.4372311 75.0963864,82.7949921 L75.0961235,83.0667543 C75.0961235,83.5130816 74.7343037,83.8749014 74.2879763,83.8749014 C73.841649,83.8749014 73.4798292,83.5130816 73.4798292,83.0667543 L73.480875,82.5057445 C73.4909053,79.6569982 73.5719323,74.877405 73.6739879,70.713606 L73.6844332,70.2069227 C73.8390522,61.9868729 73.3030462,52.4411065 72.1360846,50.9841706 L72.0997919,50.9417001 C71.798442,50.6124641 71.8210481,50.1012732 72.1502842,49.7999233 Z" id="Path"></path>
                                <path d="M109.250845,38.4734196 C109.697047,38.4628549 110.06733,38.816009 110.077894,39.2622113 C110.088459,39.7084136 109.735305,40.0786964 109.289103,40.0892611 L108.931504,40.0987519 C106.990265,40.1568638 106.45828,40.2987719 105.378005,41.0431792 C105.010486,41.2964334 104.50725,41.2038032 104.253996,40.836284 C104.000741,40.4687647 104.093372,39.9655283 104.460891,39.7122741 L104.618011,39.6055611 C105.984741,38.6916632 106.81734,38.5310374 109.250845,38.4734196 Z" id="Path"></path>
                                <path d="M115.8222,43.2679794 C116.08863,42.909897 116.594897,42.8355984 116.95298,43.1020287 C117.311062,43.3684591 117.385361,43.8747266 117.118931,44.232809 C115.614484,46.2547858 109.364111,47.6922906 107.377273,46.647701 C106.982219,46.4399992 106.83034,45.9513687 107.038041,45.5563142 C107.238051,45.1758913 107.698564,45.0209642 108.085167,45.195478 L108.129428,45.2170821 C109.394812,45.8823636 114.662761,44.6823251 115.783078,43.3179652 L115.8222,43.2679794 Z" id="Path"></path>
                                <path d="M104.266685,48.5610206 C104.563049,48.2272892 105.073842,48.1969968 105.407573,48.4933606 C105.741305,48.7897244 105.771597,49.3005174 105.475233,49.6342488 C105.011632,50.1563044 105.095497,50.4622319 105.7473,50.9161337 C106.356977,51.3406997 107.385128,51.6949248 107.825181,51.7140582 C110.497889,51.8269895 113.109442,51.1499699 114.950394,49.7892663 C115.309319,49.5239733 115.815349,49.5998777 116.080642,49.9588035 C116.345935,50.3177294 116.27003,50.8237587 115.911104,51.0890517 C113.751073,52.6855967 110.777254,53.4565302 107.755961,53.3288693 C107.005474,53.2962394 105.682056,52.8402873 104.823643,52.2425062 C103.454532,51.2890864 103.074654,49.9033517 104.266685,48.5610206 Z" id="Path"></path>
                                <path d="M104.945666,51.4045157 C105.273926,51.102103 105.785187,51.1230563 106.0876,51.4513163 C106.390013,51.7795763 106.369059,52.2908376 106.040799,52.5932504 C105.911034,52.7127978 105.809344,53.1086418 105.871588,53.5718685 C105.949898,54.1546626 106.255535,54.7030896 106.768833,55.092462 C108.101147,56.0962878 110.674765,56.008592 112.477354,55.0280047 C112.869425,54.8147231 113.360159,54.9596599 113.573441,55.3517301 C113.786722,55.7438004 113.641786,56.234535 113.249715,56.4478166 C110.938153,57.7052794 107.697282,57.8157118 105.794115,56.3817737 C104.081821,55.0828981 103.737156,52.5178673 104.945666,51.4045157 Z" id="Path"></path>
                                <path d="M99.7398001,57.0696177 C100.085481,56.8152878 100.566474,56.8767123 100.838104,57.2014151 L100.869673,57.2416398 C101.740441,58.4251745 104.030723,58.6846357 106.409632,58.1497136 C106.845086,58.0517972 107.277469,58.3254258 107.375385,58.7608801 C107.473301,59.1963345 107.199673,59.6287169 106.764218,59.7266333 C103.818261,60.3890624 100.938714,60.0628446 99.567778,58.1994903 C99.3032749,57.839982 99.3802918,57.3341208 99.7398001,57.0696177 Z" id="Path"></path>
                                <path d="M17.1979475,50.0272207 C17.4016506,49.6300896 17.888723,49.4732851 18.2858542,49.6769883 C18.6682768,49.8731468 18.827845,50.332073 18.6572429,50.7204181 L18.6360867,50.7648949 C16.895012,54.159222 16.1965517,85.0123955 16.8564566,109.152751 L16.8768698,109.882187 L16.8770348,109.921713 C16.8647206,110.528736 16.9357889,111.134313 17.0880416,111.721522 L17.1274573,111.865887 L17.1403771,111.903774 C17.3216186,112.420237 17.6007914,112.843617 18.2412217,113.620095 L18.7206491,114.194456 C19.3561022,114.96224 19.6577609,115.394991 19.9457848,116.010539 C20.9383835,118.293366 20.2289151,120.959128 18.2328953,122.446562 C17.8750106,122.713258 17.368688,122.639335 17.1019923,122.28145 C16.8352966,121.923565 16.9092199,121.417243 17.2671047,121.150547 C18.6613094,120.111585 19.1568678,118.249571 18.4728283,116.675593 L18.4240228,116.574612 C18.2083208,116.142279 17.9309467,115.76768 17.3217962,115.0405 L17.2289013,114.929901 C16.299645,113.825252 15.8996552,113.254723 15.6151133,112.438794 L15.5879235,112.359041 L15.5776221,112.325762 C15.3672486,111.590405 15.260221,110.829645 15.2593806,110.065358 L15.2606373,109.905322 L15.2486837,109.482351 C14.9760678,99.622884 14.9311467,86.5113513 15.1554416,75.4766833 L15.1953435,73.6549086 C15.5031214,60.5395321 16.1490639,52.0720809 17.1979475,50.0272207 Z" id="Path"></path>
                                <path d="M15.9934905,115.974404 C16.4354116,115.911843 16.8443752,116.219375 16.9069363,116.661296 L16.9395185,116.913814 L17.052858,117.963467 C17.0621431,118.045695 17.0711415,118.122284 17.0802663,118.196498 L17.0894485,118.270041 C17.1798099,118.982715 17.2889056,119.477841 17.4223669,119.751121 L17.5470292,120.007585 C18.2076861,121.37962 18.4595561,122.133519 18.4745239,123.12646 C18.5023112,124.775172 17.5873762,126.389559 16.1597084,127.438729 C14.9815805,128.304516 13.5206688,128.802554 11.7707447,129.040279 C11.3284797,129.10036 10.9212476,128.790539 10.8611663,128.348274 C10.801085,127.906009 11.1109061,127.498777 11.5531712,127.438696 C13.0575802,127.234323 14.2716305,126.820443 15.202578,126.136304 C16.2317753,125.379964 16.8767984,124.241832 16.8584361,123.152261 C16.8473548,122.417204 16.620841,121.788093 15.97054,120.461477 C15.747525,120.004827 15.611671,119.416034 15.5029425,118.603512 L15.4664393,118.3144 C15.4535398,118.20635 15.440736,118.092759 15.4269778,117.965414 L15.3586103,117.317549 C15.3390979,117.13794 15.3228012,117.002302 15.3065986,116.88785 C15.2440374,116.445929 15.5515694,116.036965 15.9934905,115.974404 Z" id="Path"></path>
                                <path d="M7.40111282,121.543742 C7.83939353,121.459373 8.26308486,121.746275 8.3474539,122.184556 C8.70076519,124.019939 10.3803866,126.374125 12.1207233,127.574178 C12.4881634,127.827548 12.5806362,128.330813 12.327267,128.698253 C12.0738979,129.065693 11.5706326,129.158166 11.2031926,128.904797 C9.13128111,127.476105 7.19866729,124.767321 6.76029906,122.490083 C6.67593002,122.051802 6.96283212,121.628111 7.40111282,121.543742 Z" id="Path"></path>
                                <path d="M1.45437707,121.189648 C1.89778562,121.138687 2.29855089,121.456829 2.34951135,121.900238 C2.50175236,123.224891 3.06287002,124.469218 3.95487974,125.46028 C4.25346702,125.792023 4.22658858,126.303007 3.89484508,126.601595 C3.56310157,126.900182 3.05211752,126.873303 2.75353024,126.54156 C1.63683294,125.30086 0.934375806,123.743102 0.743786941,122.084782 C0.69282648,121.641373 1.01096852,121.240608 1.45437707,121.189648 Z" id="Path"></path>
                                <path d="M86.835929,57.7930012 C86.9446994,57.3601304 87.3837863,57.0973952 87.8166571,57.2061656 C88.2495279,57.3149359 88.5122632,57.7540229 88.4034928,58.1868937 L88.2758386,58.7001353 C87.0827304,63.5457752 85.8543869,69.8971933 85.5567917,73.9746608 C85.5243028,74.4198042 85.1371054,74.7543266 84.691962,74.7218377 C84.2468187,74.6893488 83.9122962,74.3021514 83.9447851,73.857008 C84.2615343,69.5171042 85.5829079,62.7796177 86.835929,57.7930012 Z" id="Path"></path>
                                <path d="M42.6953195,0.119589538 C43.1202322,-0.0170024798 43.5754216,0.216727548 43.7120136,0.641640166 C44.5109089,3.1268562 44.9113098,5.72288267 44.8983475,8.33331641 C44.8963819,8.72916345 44.6079736,9.06532104 44.2170258,9.12743867 C43.0830144,9.30762157 41.9354366,9.38845015 40.7873645,9.36900367 C40.3411012,9.3614447 39.985461,8.99354902 39.99302,8.54728567 C40.000579,8.10102232 40.3684746,7.74538216 40.814738,7.75294114 C41.6052428,7.766331 42.3954923,7.72793759 43.1804236,7.63811752 L43.2745204,7.62648489 L43.2726789,7.54163233 C43.212238,5.45370443 42.8690429,3.38276237 42.2518451,1.38554739 L42.1732689,1.13628362 C42.0366769,0.711371 42.2704069,0.256181555 42.6953195,0.119589538 Z" id="Path"></path>
                            </g>
                        </g>
                        <g id="reading" transform="translate(163.133034, 43.000000)">
                            <g id="body" transform="translate(0.866966, 1.000000)" fill="#1E78F0" fill-rule="nonzero">
                                <path d="M67.3161702,17.8080422 C68.4957447,16.2371386 68.8951915,14.2292771 68.9890213,12.3018373 C69.0714443,10.3458055 68.9682165,8.38636498 68.6807234,6.44981928 C68.4126383,4.60816265 67.7987234,2.69680723 66.3054894,1.46635542 C63.5683404,-0.761325301 59.4157021,-0.142078313 57.3997021,2.67268072 C55.5794043,5.20596386 55.1853191,8.81957831 55.7161277,11.9345783 C55.6523525,12.6483887 55.6595366,13.3667643 55.7375745,14.0791566 C55.8045957,17.2558133 59.2789787,20.1375904 62.3029787,20.3011145 C64.2331915,20.4083434 66.1741277,19.3253313 67.3161702,17.8080422 Z" id="Path"></path>
                                <path d="M122.085957,57.9036145 C119.555234,49.4888253 116.263149,41.036506 110.333106,34.3990361 C109.869319,33.8816566 109.089191,34.2087048 108.885447,34.7823795 C108.591089,35.677034 108.451471,36.6153342 108.472596,37.5569277 L108.413617,37.5220783 C108.250085,37.2942169 108.086553,37.0663554 107.914979,36.8411747 C106.455301,34.8679104 104.686381,33.1434317 102.676596,31.7343976 C101.968851,31.2491867 101.052,30.6433434 100.148553,30.7318072 C99.2451064,30.8202711 98.7705957,31.624488 98.8590638,32.4769578 C99.0306383,34.1121988 100.553362,35.522259 101.539915,36.7393072 C102.379021,37.7794277 104.756936,40.988253 104.807872,41.0633133 C104.596085,41.385 104.38966,41.7120482 104.185915,42.0390964 C103.360213,41.1249699 102.009064,39.1519578 101.384426,38.4201205 C97.5856596,33.9567169 96.1406809,33.0854819 94.950383,34.2489157 C93.7600851,35.4123494 95.7331915,38.3128916 97.0360851,39.8918373 C98.5471305,41.748266 99.9104887,43.720156 101.11366,45.7894277 C101.054681,45.8886145 100.523872,46.3255723 100.464894,46.4193976 C99.6928085,45.4623795 98.9877447,44.4168976 98.0896596,43.5778313 C97.3872766,42.9210542 96.3015319,41.9050602 95.2640426,41.8755723 C94.4061702,41.8541265 93.9852766,42.5859639 94.0335319,43.3606928 C94.1461277,45.1996687 95.4677872,47.0466867 96.3765957,48.6283133 C97.9851064,51.4109036 99.7222979,55.654488 100.397872,56.9626807 C101.073447,58.2708735 102.143106,61.1526506 102.609574,62.4099096 C102.899106,63.1846386 103.16183,63.9700904 103.41383,64.7609036 C103.121617,64.7609036 102.829404,64.7743072 102.539872,64.8011145 C100.909915,64.9458735 99.306766,65.2568373 97.6821702,65.4284036 C97.0709362,62.8254217 95.5187234,60.2224398 94.1970638,58.4424398 C91.5145048,54.8892873 87.9578287,52.0909977 83.8731064,50.3198494 C74.1308936,46.0575 62.7908936,47.5345783 53.0433191,51.0516867 C44.7165957,54.0621386 36.7946809,59.0509639 31.7573617,66.3934639 C30.8518723,66.1760122 29.9301953,66.0325673 29.0014468,65.9645482 C27.1248511,65.8224699 25.3045532,65.4284036 23.4413617,65.2729217 C23.1571915,65.2487952 22.8703404,65.2380723 22.5834894,65.2353916 C23.2903082,63.0504723 24.1873607,60.9317358 25.2643404,58.9035241 C26.406383,56.8098795 27.9451915,54.0916265 29.4357447,51.2473795 C30.2855745,49.6389458 32.8484681,44.8324096 33.084383,43.0068373 C33.1862553,42.2374699 32.8162979,41.4761446 31.9557447,41.4412952 C30.9209362,41.4010843 30.1783404,42.0364157 29.5295745,42.7468072 C28.6985106,43.6528916 27.0042128,45.5374398 26.2294468,46.4998193 C26.1704681,46.4006325 25.7495745,46.0521386 25.6932766,45.9636747 C25.7871064,45.8162349 27.2213617,43.5510241 28.0685106,42.2910843 C28.9156596,41.0311446 29.8405532,39.3422892 30.6394468,38.0528614 C31.4383404,36.7634337 31.8914043,35.1442771 30.7815319,34.3856325 C29.6716596,33.626988 28.5939574,34.516988 27.5108936,35.5329819 C26.4278298,36.5489759 25.5190213,37.7981928 24.6155745,38.9214157 C24.0097021,39.6720181 23.1705957,41.0043373 22.283234,41.8568072 C22.103617,41.5163554 21.366383,41.2080723 21.1760426,40.8729819 C21.2269787,40.8032831 23.6263404,37.9241867 24.4654468,36.886747 C25.4466383,35.6696988 26.964,34.6161747 27.1462979,32.978253 C27.234766,32.1284639 26.7602553,31.3215663 25.8568085,31.2331024 C24.9533617,31.1446386 24.0365106,31.7531627 23.328766,32.2356928 C21.3020426,33.6216265 19.6318723,35.4525602 18.0930638,37.3531928 C17.9080851,37.5783735 17.7204255,37.8008735 17.5354468,38.0233735 C17.553677,37.0960029 17.4140701,36.1722845 17.1225957,35.2917169 C16.9188511,34.7180422 16.1387234,34.390994 15.6749362,34.9110542 C9.74489362,41.5485241 6.45280851,49.9981627 3.92208511,58.4129518 C1.5227234,66.3988253 -0.943659574,74.6018373 0.436978723,83.0032229 C0.907626765,86.0304345 1.7906834,88.978927 3.06153191,91.766506 C4.23038298,94.2703012 5.9273617,96.8116265 8.42323404,98.1466265 C11.2917447,99.68 15.2084681,99.3261446 18.2324681,98.4549096 C21.4226809,97.5381024 24.1464255,95.5945783 26.4197872,93.2140964 C27.8156193,91.7113369 29.1097624,90.1172437 30.293617,88.4424096 C31.7922128,86.3862952 33.3390638,84.3462651 34.5829787,82.1212651 C35.6553191,80.244759 36.4059574,78.1564759 37.1351489,76.1218072 C37.4980813,75.1429487 37.8077263,74.1451519 38.0627234,73.1328012 C38.2745106,73.2212651 38.483617,73.3043675 38.6954043,73.4008735 C38.7195319,74.0201205 38.8777021,74.6768976 38.9259574,75.2318072 C39.1270213,77.4916566 39.1725957,79.7622289 39.1725957,82.0274398 C39.1725957,86.3514458 39.0894894,90.6647289 39.2181702,94.9860542 C39.4862553,104.156807 39.9768511,113.260542 39.9044681,122.428614 C39.869617,126.851807 40.2181277,144.343524 40.427234,148.764036 C40.6363404,153.136295 40.6819149,171.365211 40.6819149,171.365211 C40.6819149,171.365211 38.5050638,173.145211 38.0841702,173.539277 C36.2263404,175.273705 36.1512766,176.619428 38.1431489,177.463855 C40.7006809,177.485301 60.0001277,177.463855 60.0001277,177.463855 C60.7318266,177.249447 61.3742867,176.803603 61.8311489,176.193193 C62.5174468,175.214729 62.0777872,172.249849 62.0777872,166.974187 C62.0777872,161.698524 61.7185532,142.670753 61.6971064,138.207349 C61.6756596,133.743946 61.6166809,129.248373 61.4504681,124.758163 C61.1126809,115.683916 61.812383,106.408614 61.2788936,97.3450904 C61.0108085,92.8897289 60.8204681,88.429006 60.7266383,83.9656024 C60.678383,81.735241 60.6587234,79.5013052 60.6676596,77.2637952 C60.6676596,77.2048193 60.6676596,77.1431627 60.6676596,77.0841867 C62.1510638,77.0127008 63.6317872,76.8741968 65.1098298,76.6686747 C66.3537447,76.4971084 67.589617,76.2746084 68.8201277,76.0306627 C68.9978727,77.5932201 69.0391351,79.1682921 68.9434468,80.738012 C68.7557872,85.295241 68.7638298,89.8068976 68.9809787,94.369488 C69.4179574,103.483946 70.0318723,112.480452 70.2141702,121.586867 C70.4018298,130.880934 70.7985957,159.545904 70.8629362,164.631235 C70.8924255,166.992952 70.8629362,169.309096 70.7664255,171.665452 C70.6994043,173.348946 70.5734043,175.954608 71.0586383,176.970602 C71.5438723,177.986596 73.4714043,177.938706 73.4714043,177.938706 L92.9182979,177.938706 C95.8270213,177.938706 97.3604681,176.81512 95.6956596,175.22009 C94.4973191,174.07006 91.4062979,172.319548 91.4062979,172.319548 C91.4062979,172.319548 91.3392766,167.872229 91.3392766,165.94747 C91.3392766,161.23744 90.9585957,139.140241 90.9076596,129.859578 C90.8567234,120.578916 90.1034043,105.580271 89.6717872,96.3264157 C89.4546383,91.6431928 89.0793191,86.9733735 88.7790638,82.295512 C88.6369787,80.0892771 88.5109787,77.8803614 88.4251915,75.6687651 C88.4117872,75.3256325 88.4251915,74.9020783 88.4546809,74.4356325 C88.5887234,74.8457831 88.722766,75.253253 88.8728936,75.6526807 C89.6020851,77.6873494 90.3661277,79.7649096 91.4250638,81.6521386 C92.6716596,83.8744578 94.2185106,85.9171687 95.7144255,87.9732831 C96.89484,89.6369836 98.1835435,91.2211444 99.5721702,92.7154819 C101.845532,95.0932831 104.569277,97.0368072 107.759489,97.9562952 C110.783489,98.8275301 114.700213,99.1787048 117.568723,97.648012 C120.069957,96.3076506 121.766936,93.769006 122.930426,91.2652108 C124.200883,88.4784201 125.083928,85.5308672 125.554979,82.5046084 C126.951702,74.0978614 124.485319,65.8975301 122.085957,57.9036145 Z" id="Path"></path>
                            </g>
                            <g id="body-lines" transform="translate(13.866966, 40.000000)" stroke="#3741F0" stroke-linecap="round" stroke-linejoin="round" stroke-width="6">
                                <path d="M91.2108586,29.7874046 C94.2677273,37.0732824 94.904798,43.2931298 93.5075253,43.2931298" id="Path"></path>
                                <path d="M96.4412626,0.168320611 C97.7341414,1.77137405 99.2438384,3.27557252 99.9692424,5.23129771" id="Path"></path>
                                <path d="M8.18287879,32.6568702 C5.44454545,40.9206107 5.06444444,44.9816794 6.52328283,45.4812977" id="Path"></path>
                                <path d="M3.66984848,0.638549618 C2.3769697,2.24160305 0.867272727,3.74580153 0.141868687,5.70152672" id="Path"></path>
                            </g>
                            <path d="M102.724761,63.6215526 C102.261701,62.3622355 101.205178,59.4757411 100.529216,58.1654069 C99.8532543,56.8550727 98.1340758,52.6045418 96.5373156,49.8173965 C95.6351461,48.233181 94.3231415,46.3831394 94.2113683,44.5411532 C94.1634655,43.7651561 94.5812844,43.0321208 95.4328898,43.0536017 C96.4628002,43.0831379 97.5406133,44.100795 98.2378652,44.7586472 C99.1293897,45.599087 99.8346254,46.638225 100.595748,47.604865 C100.654296,47.5028307 101.181227,47.0678428 101.239774,46.9738639 C100.045393,44.9012048 98.6919943,42.926087 97.1919873,41.0666195 C95.8986116,39.485089 93.9505641,36.5797988 95.1215216,35.4144606 C96.2924791,34.2491224 97.7295632,35.1217835 101.508562,39.5924935 C102.128638,40.3255288 103.469916,42.3017706 104.289586,43.2173935 C104.491843,42.8898099 104.69676,42.5622263 104.907,42.240013 C104.86442,42.1648299 102.495892,38.9507519 101.662916,37.9089288 C100.688892,36.6898884 99.1772925,35.27752 99.0016489,33.6396022 C98.9138271,32.7857369 99.3848713,31.9802036 100.281718,31.8915949 C101.178565,31.8029862 102.088719,32.4098213 102.791293,32.8958264 C104.786074,34.3098232 106.541196,36.0398678 107.988748,38.0190184 C108.159069,38.2445677 108.321406,38.4728022 108.483743,38.7010366 C108.616194,38.7707536 108.744185,38.8487747 108.866966,38.9346413 C108.850998,31.5129942 108.763176,23.7100614 108.523662,17.6793019 C108.348019,13.2139622 108.151085,8.74862244 108.151085,4.27791248 C108.161514,3.92893955 108.025712,3.59168748 107.777012,3.3489365 C107.528313,3.10618552 107.189742,2.98041092 106.844403,3.00248471 C103.762656,3.32201293 100.723489,3.85366492 97.657709,4.32892959 C94.5651938,4.84809216 91.513712,5.59110139 88.526902,6.55220157 C85.4797513,7.49199045 82.4592132,8.52038799 79.4014175,9.42795554 C77.1286954,10.1046035 73.4295343,11.6216913 69.9991612,13.2220175 C64.7591265,13.7214482 54.7793752,13.5710819 54.7793752,13.5710819 C51.5485971,11.8767769 45.4090541,9.88710954 43.703182,9.36619799 C40.2861152,8.32437488 33.9895575,6.79654668 30.8466011,6.19508179 C27.7036448,5.59361691 21.6758751,4.04699292 18.5009836,3.60394959 C16.8669656,3.37840026 16.8669656,5.5184338 16.8669656,8.06391911 C16.8669656,9.70183687 17.8809083,24.3007858 18.1443738,39.3051866 C18.3679202,39.0366755 18.5914666,38.7681644 18.8150131,38.4996533 C20.3425803,36.6039648 22.0085335,34.7619786 24.0124675,33.3737762 C24.715042,32.8904562 25.6251953,32.280936 26.5220423,32.3695447 C27.4188893,32.4581533 27.8899335,33.2663718 27.8021117,34.117552 C27.6317906,35.7581549 26.1255135,36.8026631 25.1408447,38.0324439 C24.3078681,39.074267 21.9260342,41.9553912 21.8754701,42.0252041 C22.0644201,42.360843 22.7962685,42.6696308 22.9745734,43.0106399 C23.8554527,42.1567746 24.6884293,40.8222744 25.2898757,40.0704433 C26.1867226,38.9453817 27.0888921,37.6941199 28.164044,36.6764628 C29.2391959,35.6588057 30.3116865,34.7646638 31.4107897,35.5272353 C32.509893,36.2898069 32.0654614,37.8955033 31.2697426,39.2004673 C30.4740238,40.5054313 29.5479028,42.191681 28.7175875,43.4456279 C27.8872722,44.6995748 26.4528493,46.976549 26.359705,47.1242301 C26.4182529,47.2262643 26.8360718,47.5753287 26.8919584,47.6612523 C27.6610646,46.7053528 29.3429853,44.8177197 30.1679781,43.9020968 C30.8120047,43.1905423 31.5491756,42.5595412 32.5764247,42.5944477 C33.4306914,42.6293541 33.7979462,43.399981 33.6968181,44.1625526 C33.4626266,45.9911132 30.9184554,50.8001472 30.0748337,52.416584 C28.5951693,55.2654869 27.067602,57.9881895 25.9339023,60.0852613 C24.3371421,63.0576793 22.9719121,66.9000732 21.8754701,71.3143959 L21.6359561,72.2702954 L21.7583744,72.3105721 C22.9000579,72.6918579 24.01779,73.1563821 25.1754412,73.4893358 C28.4381545,74.4237545 31.7753833,75.1218834 35.0806769,75.8790847 C38.3859705,76.636286 40.0918427,76.97461 43.3811687,77.9009734 C45.8242118,78.5910469 48.208707,79.4449122 50.6943304,79.9604536 C51.8785942,80.2047987 56.4293608,81.8400313 56.4879086,81.904474 C56.4082218,82.1607293 56.454304,82.4399587 56.6119908,82.6563342 C56.7696777,82.8727098 57.0201016,83 57.2862887,83 C62.9893839,82.9812035 67.66523,83.0241653 73.3656639,82.7314882 C74.0522708,82.6965818 73.7781603,81.6574438 73.7781603,81.6574438 C73.7781603,81.6574438 76.7481343,79.9899898 77.7008678,79.5281507 C78.898438,78.9508518 80.1439109,78.4755871 81.3547874,77.917084 C84.769193,76.3543494 88.2448077,74.9231852 91.6778421,73.4007272 C95.7628869,71.5936474 100.292363,70.640433 104.31886,68.682987 C103.845155,67.0101628 103.342175,65.2916917 102.724761,63.6215526 Z" id="object" fill="#F0B441" fill-rule="nonzero"></path>
                            <g id="object-lines" transform="translate(20.866966, 0.000000)" fill="#DC8C2D" fill-rule="nonzero">
                                <path d="M68.751196,3.59715775 C73.3515988,2.21658008 76.8176887,1.62094362 80.4268641,1.80908831 C80.836826,1.83045945 81.161533,2.15682717 81.185023,2.56102885 L81.1863844,2.608 L81.1863844,3.86666667 C81.1863844,4.30849447 80.8276288,4.66666667 80.3850814,4.66666667 C79.9583393,4.66666667 79.6095108,4.33362134 79.5851388,3.91367274 L79.5837785,3.86666667 L79.5837785,3.37973333 L79.4025801,3.37694961 C76.3935758,3.34240269 73.36698,3.89716042 69.4579976,5.05620437 L68.5206912,5.33919625 C68.2472853,5.42318868 67.9713766,5.50946759 67.6363497,5.61585895 L64.2005154,6.72174819 C62.940596,7.12535279 61.6089132,7.59102305 60.0932864,8.15251163 L59.2135438,8.48127301 C58.9247915,8.5900516 58.6280038,8.70267462 58.3125049,8.82315101 L53.5535977,10.6593193 C53.3809646,10.7253688 53.2138221,10.789112 53.0489632,10.8517674 C52.6214353,11.014066 52.152323,11.2231657 51.6490754,11.4735668 C51.1619399,11.7159509 50.6495982,11.9936163 50.1199025,12.2997804 C49.4000079,12.7158796 48.6849709,13.162745 48.0086407,13.6096217 L47.7794844,13.7620587 C47.7056416,13.8115193 47.6343927,13.8595811 47.5658915,13.9061026 L47.1393869,14.2007675 C46.7790238,14.4572284 46.2786505,14.373474 46.0217719,14.0136968 C45.7747733,13.6677572 45.8428351,13.1925809 46.1687975,12.9285478 L46.2205059,12.8898409 L46.4585933,12.7239983 L46.6640619,12.5834741 C46.8067039,12.4865979 46.9604725,12.3835213 47.1241701,12.2753602 C47.8254877,11.8119733 48.5669795,11.348575 49.316945,10.9150949 C49.8740104,10.593111 50.4152465,10.2997862 50.934227,10.0415569 C51.4211358,9.79928556 51.8832898,9.59048307 52.3175555,9.41892257 L54.1026933,8.73338352 L57.1773691,7.54425361 C57.8127825,7.30014765 58.3627726,7.09098412 58.8961399,6.89093281 L59.263584,6.7535741 C60.8216807,6.17308026 62.1900955,5.69049803 63.4836504,5.27145624 L67.4000514,4.01215959 C67.8871448,3.85856708 68.2649307,3.74308563 68.751196,3.59715775 Z" id="Path"></path>
                                <path d="M3.02725388,2.54691928 L3.07422016,2.54957735 C15.1996971,3.5850701 25.6348952,6.76701115 37.3889045,12.6064422 C37.7851086,12.8032777 37.9464688,13.283509 37.7493128,13.6790689 C37.5521567,14.0746287 37.0711432,14.2357266 36.6749392,14.0388911 C25.4501014,8.46235423 15.4833363,5.35663675 4.03806697,4.24419143 L3.81898371,4.2232 L3.82585575,4.72256508 C3.83159983,5.14857472 3.50273765,5.50128739 3.08247126,5.53127021 L3.0354112,5.53326086 C2.60870774,5.5389956 2.25542061,5.21066816 2.22538896,4.79108513 L2.22339507,4.74410159 L2.20462348,3.35743492 C2.19853325,2.90022639 2.5756898,2.53438574 3.02725388,2.54691928 Z" id="Path"></path>
                                <path d="M62.170514,3.56821965 L62.5382637,3.45257615 L63.0949927,3.27998436 C70.8574066,0.894943226 77.2889705,-0.173746154 82.9472678,0.591235706 C83.3155519,0.641026426 83.5989574,0.936301979 83.6367612,1.30126552 L83.640286,1.34925022 L83.7291998,3.37325022 C83.7476524,3.814661 83.4048188,4.18805315 82.9626891,4.20724493 C82.5363498,4.22575128 82.1733603,3.9081478 82.1307402,3.4896525 L82.1273361,3.44274978 L82.0686189,2.09653333 L81.9588217,2.084959 C76.6979037,1.5455788 70.6094035,2.62531832 63.2890887,4.89479602 L63.0174019,4.97939395 C54.9290236,7.50995394 48.148294,10.4916474 42.8616176,14.2037038 C42.5887315,14.3953116 42.2254861,14.3980708 41.9497115,14.2106304 C39.2600347,12.3824935 36.3773825,10.8554975 33.3515641,9.65609085 L33.0268237,9.52883773 C25.5846468,6.61681957 20.7473056,5.1269883 15.2491068,4.1397619 L14.7176195,4.04713712 C10.7738556,3.36864198 4.63534403,2.49605878 1.86206152,2.24692715 L1.80130293,2.2416 L1.80130293,4.26666667 C1.80130293,4.6927149 1.46771519,5.04097623 1.04708263,5.06530862 L1,5.06666667 C0.573257875,5.06666667 0.224429342,4.73362134 0.200057332,4.31367274 L0.198697068,4.26666667 L0.198697068,1.384 C0.198697068,0.92928966 0.577823574,0.566009959 1.03289065,0.584674209 L1.17285619,0.591344363 C3.5663523,0.719752638 11.1646735,1.79333341 15.5305655,2.56463226 C21.0766712,3.56045733 25.9535684,5.05333927 33.320754,7.92556157 L33.6090542,8.03816619 C36.6398843,9.2121398 39.536795,10.7035287 42.251373,12.4869287 L42.3929055,12.5805333 L42.4312786,12.5546325 C47.7169051,8.94651737 54.3439184,6.04198938 62.170514,3.56821965 Z" id="Path"></path>
                                <path d="M50.8209163,13.5527101 C51.2458571,13.513606 51.623831,13.8132809 51.6867072,14.2292236 L51.7304426,14.6954039 L51.8305271,15.8301731 L51.9190915,16.8660547 C51.9779203,17.5642317 52.0361068,18.2757214 52.0923676,18.9893308 L52.1341819,19.5247603 C52.1623237,19.888636 52.1894785,20.2472501 52.2155511,20.5997735 L52.2904267,21.638243 C52.4604163,24.061896 52.5620637,26.0053264 52.575762,27.3081713 L52.5800852,27.9403187 C52.5944639,29.5231176 52.6506054,31.1175797 52.7590943,33.2542449 L53.0286347,38.2297776 C53.1994834,41.5292707 53.2547471,43.4498599 53.2261181,45.6401479 L53.2207996,45.9947339 C53.1801663,48.4162134 53.2101667,50.9450258 53.3041111,53.7159218 L53.350422,54.9815091 C53.4315172,57.0587342 53.5339368,59.0232628 53.71905,62.1518073 L53.9513112,66.0051032 C54.149081,69.2742465 54.3373941,76.6703842 54.3373941,80.5093333 C54.3373941,80.9511611 53.9786386,81.3093333 53.5360912,81.3093333 C53.0935438,81.3093333 52.7347883,80.9511611 52.7347883,80.5093333 L52.7328783,79.8018377 C52.7136454,76.033667 52.5520076,69.7678243 52.3774508,66.5530405 L52.0579416,61.2005211 C51.8873967,58.2595878 51.7955031,56.3752601 51.7171034,54.190679 C51.6158797,51.3701172 51.5787944,48.7973764 51.612787,46.3362127 L51.6220555,45.7351725 C51.6591574,43.1498092 51.5786087,40.9707584 51.3255782,36.4068671 L51.2116561,34.3487137 C51.0594076,31.5219811 50.9868548,29.6114489 50.9753468,27.6611953 L50.9745979,27.5148369 C50.9701392,26.2595365 50.8683266,24.2677831 50.6917355,21.7500072 L50.6172795,20.7173689 C50.591347,20.3667433 50.5643326,20.0099852 50.5363321,19.6479346 C50.4538605,18.5815676 50.3663238,17.5132974 50.2780643,16.481102 L50.0965419,14.42276 C50.0559234,13.9827972 50.3802369,13.5932626 50.8209163,13.5527101 Z" id="Path"></path>
                                <path d="M33.5066392,13.7687321 C33.9329908,13.7505094 34.2957681,14.0683543 34.3381089,14.4868779 L34.5178671,18.5200574 L34.6703285,21.7227399 L34.7657172,23.5115792 C34.8468182,25.0880392 34.9190438,26.7502441 34.9886043,28.5991166 L35.0845172,31.3005472 L35.2231861,35.6124276 C35.257517,36.7794051 35.283443,37.9169579 35.3111093,39.4495965 L35.4347215,46.8617808 C35.4608102,48.1950469 35.487033,49.2333828 35.5231883,50.3982746 C35.5960098,52.7445181 35.6953149,54.854214 35.8338687,56.8695054 L35.8903547,57.6813036 C36.1000457,60.7977752 36.2129436,64.2611369 36.2605431,68.4103605 L36.278197,70.3544419 C36.2840985,71.2144515 36.2874802,72.0887847 36.2891386,73.1455274 L36.2920718,80.9790517 C36.293311,81.4208777 35.9355801,81.78007 35.4930345,81.781353 C35.0504889,81.7825902 34.6907117,81.425441 34.6894495,80.983615 L34.6849629,72.3910189 C34.682508,71.4576027 34.6782931,70.6532518 34.6716201,69.8303422 L34.6580577,68.4300537 C34.6095696,64.2023386 34.4930261,60.6966491 34.2752854,57.5532132 L34.2587646,57.3181292 C34.1222746,55.403562 34.0219462,53.4136935 33.9468328,51.2276982 L33.9148514,50.2362459 C33.8551733,48.2728904 33.8225858,46.6049722 33.7689968,43.1660808 L33.7113425,39.6223675 C33.6836372,38.0694742 33.657987,36.9240553 33.6242703,35.7622946 L33.4597592,30.6752864 L33.3993408,28.9864395 C33.3181556,26.7933433 33.2338568,24.8671158 33.1364121,23.0443275 L33.0648147,21.7063831 C33.0407517,21.2325281 33.0132057,20.6646697 32.9826639,20.0151193 L32.900322,18.2272778 C32.8725574,17.6138807 32.8443158,16.9806054 32.8162584,16.3440227 L32.7403424,14.6022171 C32.721414,14.1607937 33.0644968,13.7876297 33.5066392,13.7687321 Z" id="Path"></path>
                            </g>
                        </g>
                    </g>
                </g>
            </g>
        </g>
    </g>
</svg>